<?xml version="1.0" encoding="UTF-8"?>
<svg id="Layer_1" data-name="Layer 1" xmlns="http://www.w3.org/2000/svg" viewBox="0 0 5000 1325.69" preserveAspectRatio="xMidYMid meet">
  <defs>
    <style>
      .cls-1, .cls-2 {
        stroke: #fff;
        stroke-miterlimit: 10;
      }

      .cls-1, .cls-3 {
        fill: #ff80b4;
      }

      .cls-2, .cls-4, .cls-5 {
        fill: #fff;
      }

      .cls-5 {
        font-family: Futura, 'Futura PT', 'Century Gothic', sans-serif;
        font-size: 500px;
        font-weight: 700;
        letter-spacing: 0.05em;
      }

      .cls-6 {
        fill: none;
        stroke: #000;
        stroke-linecap: round;
        stroke-linejoin: round;
        stroke-width: 28px;
      }

      .cls-7 {
        fill: #b400ff;
      }
    </style>
  </defs>
  <path class="cls-1" d="M1099.61,636.63c12.42,58.19,37.57,175.96-24,284-99.64,174.87-346.25,183.59-442.5,187-96.55,3.42-349.83,13.43-450.95-153.11-69.28-114.11-34.6-245.65-15.55-317.89,12.77-48.42,130.56-471,466.5-471,265.06,0,426.86,285.35,466.5,471Z"/>
  <path class="cls-2" d="M1175.46,979.31c0,197.44-252.96,235.41-547.33,235.41s-518.67-37.96-518.67-235.41,238.63-357.5,533-357.5,533,160.06,533,357.5Z"/>
  <ellipse class="cls-2" cx="633.61" cy="572.63" rx="247" ry="252"/>
  <path class="cls-3" d="M437.44,199.87c21.83,45.88,65.08,163.21,28.18,180.77-36.91,17.56-140-71.3-161.82-117.19s-9.6-97.31,27.3-114.87c36.91-17.56,84.52,5.41,106.35,51.29Z"/>
  <path class="cls-3" d="M947.86,298.61c-40.88,30.17-147.81,95-172.08,62.12-24.27-32.88,43.31-151.02,84.19-181.2,40.88-30.17,93.7-27.98,117.97,4.9,24.27,32.88,10.81,84-30.08,114.17Z"/>
  <path d="M591.61,502.63c.51,41.13,1.11,89.76-26,104-11.94,6.27-29.65,6.08-36.5,6-6.33-.07-23.53-.26-35.36-6.44-32.77-17.11-28.52-82.36-27.14-103.56,2.96-45.46,19.4-81.18,39.41-98.32,11.01-9.43,20.84-11.3,23.09-11.68,17.26-2.93,31.51,6.1,34.5,8,26.95,17.09,27.49,61.04,28,102Z"/>
  <path d="M673.06,502.63c-.51,41.13-1.11,89.76,26,104,11.94,6.27,29.65,6.08,36.5,6,6.33-.07,23.53-.26,35.36-6.44,32.77-17.11,28.52-82.36,27.14-103.56-2.96-45.46-19.4-81.18-39.41-98.32-11.01-9.43-20.84-11.3-23.09-11.68-17.26-2.93-31.51,6.1-34.5,8-26.95,17.09-27.49,61.04-28,102Z"/>
  <path class="cls-4" d="M570.11,440.88c-2.18,12.29-16.64,19.44-27.5,20.75-15.1,1.82-34.5-6.28-37-20.75-2.63-15.19,14.25-32.24,32.25-32.25,18.06,0,34.93,17.16,32.25,32.25Z"/>
  <path class="cls-4" d="M762.86,440.88c-2.18,12.29-16.64,19.44-27.5,20.75-15.1,1.82-34.5-6.28-37-20.75-2.63-15.19,14.25-32.24,32.25-32.25,18.06,0,34.93,17.16,32.25,32.25Z"/>
  <line class="cls-6" x1="633.61" y1="773.09" x2="638.75" y2="1007.92"/>
  <path class="cls-7" d="M478.93,647.96c-4.89-3.91-2.58-11.79,3.65-12.42,47.51-4.81,99.93-7.9,156.55-7.9,47.29,0,99.5,2.16,155.75,7.82,6.34.64,8.61,8.73,3.51,12.56-53.48,40.12-106.96,80.25-160.44,120.37-2.55,1.91-6.07,1.86-8.57-.13-50.15-40.1-100.3-80.19-150.45-120.29Z"/>
  <path class="cls-6" d="M283.13,784.76s-9.75,222.73,314.78,232.92c135.39,4.25,357.17-7.61,386.22-208.51"/>
  <text class="cls-5" transform="translate(1269.9 828.38)"><tspan x="0" y="0">JOY MEDIA </tspan></text>
</svg>